<svg width="512" height="512" viewBox="0 0 512 512" fill="none" xmlns="http://www.w3.org/2000/svg">
<path d="M512 256C512 114.615 397.385 0 256 0C114.615 0 0 114.615 0 256C0 397.385 114.615 512 256 512C397.385 512 512 397.385 512 256Z" fill="url(#paint0_linear_1307_1415)"/>
<path d="M196.845 276.165L181 266.252C191.827 242.219 220.084 213.687 259.697 244.927C291.387 269.919 309.785 247.73 314.891 233.512L331 244.926C322.549 266.252 291.387 298.994 254.151 266.252C224.363 240.058 204.239 264.451 196.845 276.165Z" fill="white"/>
<path d="M181 173.534V138H331V173.534L297.607 221.214C278.914 238.628 276.975 206.443 255.107 221.214L288.524 173.534H181Z" fill="white"/>
<path d="M331 337.773V373.306H181V337.773L214.393 290.092C233.086 272.678 235.025 304.864 256.893 290.092L223.476 337.773H331Z" fill="white"/>
<defs>
<linearGradient id="paint0_linear_1307_1415" x1="256" y1="0" x2="256" y2="512" gradientUnits="userSpaceOnUse">
<stop stop-color="#AF29DC"/>
<stop offset="1" stop-color="#05D2E3"/>
</linearGradient>
</defs>
</svg>
